<mxfile host="app.diagrams.net" modified="2023-12-03T10:23:44.404Z" agent="Mozilla/5.0 (Windows NT 10.0; Win64; x64) AppleWebKit/537.36 (KHTML, like Gecko) Chrome/121.0.0.0 Safari/537.36 Edg/121.0.0.0" etag="02IkMYrHXQKvOySi796d" version="22.1.5" type="device">
  <diagram name="Page-1" id="uZ3OU5pdZBP6D6zqTWE5">
    <mxGraphModel dx="1282" dy="557" grid="1" gridSize="10" guides="1" tooltips="1" connect="1" arrows="1" fold="1" page="1" pageScale="1" pageWidth="850" pageHeight="1100" math="0" shadow="0">
      <root>
        <mxCell id="0" />
        <mxCell id="1" parent="0" />
        <mxCell id="-3wzFjzAV5iXs3W9r8vI-2" value="" style="swimlane;startSize=0;" parent="1" vertex="1">
          <mxGeometry x="130" y="30" width="460" height="610" as="geometry" />
        </mxCell>
        <mxCell id="-3wzFjzAV5iXs3W9r8vI-3" value="&lt;font style=&quot;font-size: 18px;&quot;&gt;HOTEL MANAGEMENT&lt;/font&gt;" style="text;html=1;align=center;verticalAlign=middle;resizable=0;points=[];autosize=1;strokeColor=none;fillColor=none;" parent="-3wzFjzAV5iXs3W9r8vI-2" vertex="1">
          <mxGeometry x="120" y="-5" width="220" height="40" as="geometry" />
        </mxCell>
        <mxCell id="-3wzFjzAV5iXs3W9r8vI-8" value="Check in" style="ellipse;whiteSpace=wrap;html=1;" parent="-3wzFjzAV5iXs3W9r8vI-2" vertex="1">
          <mxGeometry x="320" y="210" width="100" height="60" as="geometry" />
        </mxCell>
        <mxCell id="-3wzFjzAV5iXs3W9r8vI-10" value="In bill" style="ellipse;whiteSpace=wrap;html=1;" parent="-3wzFjzAV5iXs3W9r8vI-2" vertex="1">
          <mxGeometry x="325" y="390" width="90" height="50" as="geometry" />
        </mxCell>
        <mxCell id="-3wzFjzAV5iXs3W9r8vI-9" value="Check out" style="ellipse;whiteSpace=wrap;html=1;" parent="-3wzFjzAV5iXs3W9r8vI-2" vertex="1">
          <mxGeometry x="320" y="290" width="100" height="60" as="geometry" />
        </mxCell>
        <mxCell id="-3wzFjzAV5iXs3W9r8vI-12" value="" style="endArrow=none;html=1;rounded=0;entryX=1;entryY=0.5;entryDx=0;entryDy=0;exitX=1;exitY=0.5;exitDx=0;exitDy=0;" parent="-3wzFjzAV5iXs3W9r8vI-2" source="-3wzFjzAV5iXs3W9r8vI-8" target="-3wzFjzAV5iXs3W9r8vI-9" edge="1">
          <mxGeometry width="50" height="50" relative="1" as="geometry">
            <mxPoint x="250" y="220" as="sourcePoint" />
            <mxPoint x="300" y="170" as="targetPoint" />
            <Array as="points">
              <mxPoint x="610" y="240" />
            </Array>
          </mxGeometry>
        </mxCell>
        <mxCell id="-3wzFjzAV5iXs3W9r8vI-14" value="" style="endArrow=none;html=1;rounded=0;entryX=1;entryY=0.5;entryDx=0;entryDy=0;" parent="-3wzFjzAV5iXs3W9r8vI-2" target="-3wzFjzAV5iXs3W9r8vI-10" edge="1">
          <mxGeometry width="50" height="50" relative="1" as="geometry">
            <mxPoint x="610" y="240" as="sourcePoint" />
            <mxPoint x="300" y="170" as="targetPoint" />
          </mxGeometry>
        </mxCell>
        <mxCell id="-3wzFjzAV5iXs3W9r8vI-27" value="Đặt chỗ, hủy đặt chỗ (trực tiếp)" style="ellipse;whiteSpace=wrap;html=1;" parent="-3wzFjzAV5iXs3W9r8vI-2" vertex="1">
          <mxGeometry x="325" y="50" width="100" height="60" as="geometry" />
        </mxCell>
        <mxCell id="-3wzFjzAV5iXs3W9r8vI-29" value="Đặt chỗ, hủy đặt chỗ" style="ellipse;whiteSpace=wrap;html=1;" parent="-3wzFjzAV5iXs3W9r8vI-2" vertex="1">
          <mxGeometry x="40" y="50" width="100" height="60" as="geometry" />
        </mxCell>
        <mxCell id="-3wzFjzAV5iXs3W9r8vI-32" value="Check in" style="ellipse;whiteSpace=wrap;html=1;" parent="-3wzFjzAV5iXs3W9r8vI-2" vertex="1">
          <mxGeometry x="40" y="170" width="100" height="60" as="geometry" />
        </mxCell>
        <mxCell id="-3wzFjzAV5iXs3W9r8vI-33" value="Check out" style="ellipse;whiteSpace=wrap;html=1;" parent="-3wzFjzAV5iXs3W9r8vI-2" vertex="1">
          <mxGeometry x="40" y="290" width="100" height="60" as="geometry" />
        </mxCell>
        <mxCell id="-3wzFjzAV5iXs3W9r8vI-38" value="include" style="endArrow=open;endSize=12;dashed=1;html=1;rounded=0;exitX=1;exitY=0.5;exitDx=0;exitDy=0;entryX=0;entryY=0.5;entryDx=0;entryDy=0;" parent="-3wzFjzAV5iXs3W9r8vI-2" source="-3wzFjzAV5iXs3W9r8vI-29" target="-3wzFjzAV5iXs3W9r8vI-27" edge="1">
          <mxGeometry width="160" relative="1" as="geometry">
            <mxPoint x="140" y="90" as="sourcePoint" />
            <mxPoint x="300" y="90" as="targetPoint" />
          </mxGeometry>
        </mxCell>
        <mxCell id="-3wzFjzAV5iXs3W9r8vI-39" value="Không còn phòng trống" style="ellipse;whiteSpace=wrap;html=1;" parent="-3wzFjzAV5iXs3W9r8vI-2" vertex="1">
          <mxGeometry x="325" y="130" width="90" height="60" as="geometry" />
        </mxCell>
        <mxCell id="-3wzFjzAV5iXs3W9r8vI-42" value="include" style="endArrow=open;endSize=12;dashed=1;html=1;rounded=0;exitX=1;exitY=1;exitDx=0;exitDy=0;entryX=0;entryY=0.5;entryDx=0;entryDy=0;" parent="-3wzFjzAV5iXs3W9r8vI-2" source="-3wzFjzAV5iXs3W9r8vI-32" target="-3wzFjzAV5iXs3W9r8vI-8" edge="1">
          <mxGeometry width="160" relative="1" as="geometry">
            <mxPoint x="340" y="290" as="sourcePoint" />
            <mxPoint x="500" y="290" as="targetPoint" />
          </mxGeometry>
        </mxCell>
        <mxCell id="-3wzFjzAV5iXs3W9r8vI-43" value="include" style="endArrow=open;endSize=12;dashed=1;html=1;rounded=0;entryX=0;entryY=0.5;entryDx=0;entryDy=0;exitX=1;exitY=0.5;exitDx=0;exitDy=0;" parent="-3wzFjzAV5iXs3W9r8vI-2" source="-3wzFjzAV5iXs3W9r8vI-33" target="-3wzFjzAV5iXs3W9r8vI-9" edge="1">
          <mxGeometry width="160" relative="1" as="geometry">
            <mxPoint x="260" y="353.75" as="sourcePoint" />
            <mxPoint x="150" y="340" as="targetPoint" />
          </mxGeometry>
        </mxCell>
        <mxCell id="-3wzFjzAV5iXs3W9r8vI-47" value="Extends" style="endArrow=block;endSize=16;endFill=0;html=1;rounded=0;exitX=0;exitY=0.5;exitDx=0;exitDy=0;entryX=1;entryY=0.5;entryDx=0;entryDy=0;" parent="-3wzFjzAV5iXs3W9r8vI-2" source="-3wzFjzAV5iXs3W9r8vI-39" target="-3wzFjzAV5iXs3W9r8vI-29" edge="1">
          <mxGeometry width="160" relative="1" as="geometry">
            <mxPoint x="90" y="140" as="sourcePoint" />
            <mxPoint x="250" y="140" as="targetPoint" />
          </mxGeometry>
        </mxCell>
        <mxCell id="-3wzFjzAV5iXs3W9r8vI-48" value="include" style="endArrow=open;endSize=12;dashed=1;html=1;rounded=0;exitX=0.5;exitY=1;exitDx=0;exitDy=0;entryX=0.5;entryY=0;entryDx=0;entryDy=0;" parent="-3wzFjzAV5iXs3W9r8vI-2" source="-3wzFjzAV5iXs3W9r8vI-9" target="-3wzFjzAV5iXs3W9r8vI-10" edge="1">
          <mxGeometry width="160" relative="1" as="geometry">
            <mxPoint x="170" y="380" as="sourcePoint" />
            <mxPoint x="330" y="380" as="targetPoint" />
          </mxGeometry>
        </mxCell>
        <mxCell id="-3wzFjzAV5iXs3W9r8vI-49" value="Thanh toán" style="ellipse;whiteSpace=wrap;html=1;" parent="-3wzFjzAV5iXs3W9r8vI-2" vertex="1">
          <mxGeometry x="40" y="410" width="100" height="60" as="geometry" />
        </mxCell>
        <mxCell id="-3wzFjzAV5iXs3W9r8vI-50" value="include" style="endArrow=open;endSize=12;dashed=1;html=1;rounded=0;exitX=0;exitY=0.5;exitDx=0;exitDy=0;entryX=1;entryY=0.5;entryDx=0;entryDy=0;" parent="-3wzFjzAV5iXs3W9r8vI-2" source="-3wzFjzAV5iXs3W9r8vI-10" target="-3wzFjzAV5iXs3W9r8vI-49" edge="1">
          <mxGeometry width="160" relative="1" as="geometry">
            <mxPoint x="160" y="430" as="sourcePoint" />
            <mxPoint x="320" y="430" as="targetPoint" />
          </mxGeometry>
        </mxCell>
        <mxCell id="glBoEEjOKqZoXDnIzZfN-1" value="Báo cáo" style="ellipse;whiteSpace=wrap;html=1;" parent="-3wzFjzAV5iXs3W9r8vI-2" vertex="1">
          <mxGeometry x="320" y="490" width="100" height="60" as="geometry" />
        </mxCell>
        <mxCell id="glBoEEjOKqZoXDnIzZfN-7" value="include" style="endArrow=open;endSize=12;dashed=1;html=1;rounded=0;exitX=0.5;exitY=1;exitDx=0;exitDy=0;entryX=0.5;entryY=0;entryDx=0;entryDy=0;" parent="-3wzFjzAV5iXs3W9r8vI-2" source="-3wzFjzAV5iXs3W9r8vI-10" target="glBoEEjOKqZoXDnIzZfN-1" edge="1">
          <mxGeometry width="160" relative="1" as="geometry">
            <mxPoint x="335" y="425" as="sourcePoint" />
            <mxPoint x="150" y="450" as="targetPoint" />
          </mxGeometry>
        </mxCell>
        <mxCell id="-3wzFjzAV5iXs3W9r8vI-6" value="Lễ tân" style="shape=umlActor;verticalLabelPosition=bottom;verticalAlign=top;html=1;outlineConnect=0;" parent="1" vertex="1">
          <mxGeometry x="740" y="250" width="30" height="60" as="geometry" />
        </mxCell>
        <mxCell id="-3wzFjzAV5iXs3W9r8vI-11" value="" style="endArrow=none;html=1;rounded=0;exitX=0;exitY=0.3333333333333333;exitDx=0;exitDy=0;exitPerimeter=0;entryX=1;entryY=0.5;entryDx=0;entryDy=0;" parent="1" source="-3wzFjzAV5iXs3W9r8vI-6" target="-3wzFjzAV5iXs3W9r8vI-27" edge="1">
          <mxGeometry width="50" height="50" relative="1" as="geometry">
            <mxPoint x="380" y="250" as="sourcePoint" />
            <mxPoint x="430" y="200" as="targetPoint" />
          </mxGeometry>
        </mxCell>
        <mxCell id="-3wzFjzAV5iXs3W9r8vI-25" value="Khách hàng" style="shape=umlActor;verticalLabelPosition=bottom;verticalAlign=top;html=1;outlineConnect=0;" parent="1" vertex="1">
          <mxGeometry x="40" y="250" width="30" height="60" as="geometry" />
        </mxCell>
        <mxCell id="-3wzFjzAV5iXs3W9r8vI-34" value="" style="endArrow=none;html=1;rounded=0;entryX=0;entryY=0.5;entryDx=0;entryDy=0;" parent="1" target="-3wzFjzAV5iXs3W9r8vI-29" edge="1">
          <mxGeometry width="50" height="50" relative="1" as="geometry">
            <mxPoint x="70" y="270" as="sourcePoint" />
            <mxPoint x="120" y="220" as="targetPoint" />
          </mxGeometry>
        </mxCell>
        <mxCell id="-3wzFjzAV5iXs3W9r8vI-35" value="" style="endArrow=none;html=1;rounded=0;entryX=0;entryY=0.5;entryDx=0;entryDy=0;" parent="1" target="-3wzFjzAV5iXs3W9r8vI-32" edge="1">
          <mxGeometry width="50" height="50" relative="1" as="geometry">
            <mxPoint x="70" y="270" as="sourcePoint" />
            <mxPoint x="120" y="220" as="targetPoint" />
          </mxGeometry>
        </mxCell>
        <mxCell id="-3wzFjzAV5iXs3W9r8vI-36" value="" style="endArrow=none;html=1;rounded=0;entryX=0;entryY=0.5;entryDx=0;entryDy=0;" parent="1" target="-3wzFjzAV5iXs3W9r8vI-33" edge="1">
          <mxGeometry width="50" height="50" relative="1" as="geometry">
            <mxPoint x="70" y="270" as="sourcePoint" />
            <mxPoint x="120" y="220" as="targetPoint" />
          </mxGeometry>
        </mxCell>
        <mxCell id="-3wzFjzAV5iXs3W9r8vI-51" value="" style="endArrow=none;html=1;rounded=0;exitX=1;exitY=0.3333333333333333;exitDx=0;exitDy=0;exitPerimeter=0;entryX=0;entryY=0.5;entryDx=0;entryDy=0;" parent="1" source="-3wzFjzAV5iXs3W9r8vI-25" target="-3wzFjzAV5iXs3W9r8vI-49" edge="1">
          <mxGeometry width="50" height="50" relative="1" as="geometry">
            <mxPoint x="530" y="430" as="sourcePoint" />
            <mxPoint x="580" y="380" as="targetPoint" />
          </mxGeometry>
        </mxCell>
        <mxCell id="glBoEEjOKqZoXDnIzZfN-5" value="" style="endArrow=none;html=1;rounded=0;entryX=0;entryY=0.3333333333333333;entryDx=0;entryDy=0;entryPerimeter=0;exitX=1;exitY=0.5;exitDx=0;exitDy=0;" parent="1" source="glBoEEjOKqZoXDnIzZfN-1" target="-3wzFjzAV5iXs3W9r8vI-6" edge="1">
          <mxGeometry width="50" height="50" relative="1" as="geometry">
            <mxPoint x="400" y="400" as="sourcePoint" />
            <mxPoint x="450" y="350" as="targetPoint" />
          </mxGeometry>
        </mxCell>
      </root>
    </mxGraphModel>
  </diagram>
</mxfile>
